<svg width="87" height="25" viewBox="0 0 87 25" fill="none" xmlns="http://www.w3.org/2000/svg">
<g id="Bell">
<rect id="Rectangle 27" width="87" height="24" fill="#D9D9D9"/>
<g id="&#240;&#159;&#166;&#134; icon &#34;bell&#34;">
<g id="Group">
<path id="Vector" fill-rule="evenodd" clip-rule="evenodd" d="M44.7226 5.63938C44.7226 4.73301 44.1237 4 43.3855 4C42.6472 4 42.0494 4.73301 42.0494 5.63938C42.0494 5.74137 42.059 5.84335 42.073 5.94151C39.2165 7.26602 37.0715 10.0425 37.0715 16.7071H49.9287C49.9297 10.0412 47.5544 7.26729 44.6969 5.94151C44.713 5.84335 44.7226 5.74137 44.7226 5.63938Z" fill="black"/>
<path id="Vector_2" fill-rule="evenodd" clip-rule="evenodd" d="M51 20.5315H36L36.9707 17.9819H49.7271L51 20.5315Z" fill="#434343"/>
<path id="Vector_3" fill-rule="evenodd" clip-rule="evenodd" d="M43.4582 24.3559C44.6197 24.3559 45.5593 23.2379 45.5593 21.8611H41.3572C41.3572 23.2379 42.2979 24.3559 43.4582 24.3559Z" fill="#434343"/>
</g>
</g>
</g>
</svg>
