<svg width="285" height="335" viewBox="0 0 285 335" fill="none" xmlns="http://www.w3.org/2000/svg">
<path d="M235.683 0.000146519H49.1186C42.6771 -0.0159134 36.2957 1.28842 30.3396 3.83855C24.3835 6.38867 18.9696 10.1345 14.4075 14.8618C9.84537 19.5891 6.22465 25.2051 3.75247 31.3884C1.28029 37.5717 0.00513057 44.2011 0 50.8972V244.835C0.0103734 258.331 5.17219 271.27 14.3521 280.813C23.532 290.356 35.9796 295.722 48.9619 295.732H235.683C248.665 295.722 261.113 290.356 270.293 280.813C279.473 271.27 284.634 258.331 284.645 244.835V50.8972C284.634 37.4018 279.473 24.4622 270.293 14.9194C261.113 5.37674 248.665 0.0109295 235.683 0.000146519ZM166.353 64.2933C169.15 64.2933 171.883 65.1554 174.209 66.7705C176.534 68.3857 178.346 70.6814 179.417 73.3673C180.487 76.0532 180.767 79.0087 180.221 81.86C179.676 84.7113 178.329 87.3305 176.352 89.3862C174.374 91.4419 171.854 92.8418 169.112 93.409C166.369 93.9761 163.525 93.685 160.942 92.5725C158.358 91.46 156.15 89.576 154.596 87.1587C153.042 84.7415 152.213 81.8995 152.213 78.9923C152.213 75.0939 153.702 71.3551 156.354 68.5985C159.006 65.8419 162.603 64.2933 166.353 64.2933ZM122.248 89.6196C125.472 89.6518 128.614 90.6749 131.279 92.56C133.945 94.4451 136.014 97.108 137.226 100.213C138.438 103.319 138.74 106.727 138.092 110.01C137.444 113.293 135.876 116.303 133.586 118.661C131.295 121.02 128.385 122.621 125.221 123.263C122.057 123.905 118.781 123.559 115.805 122.27C112.83 120.98 110.288 118.804 108.5 116.015C106.712 113.226 105.758 109.95 105.758 106.599C105.758 104.355 106.185 102.134 107.016 100.063C107.846 97.9927 109.064 96.1136 110.597 94.5348C112.13 92.956 113.949 91.7087 115.949 90.8651C117.949 90.0214 120.09 89.5981 122.248 89.6196ZM176.654 216.781L205.797 201.96C206.951 201.371 208.206 201.025 209.49 200.941C210.773 200.857 212.06 201.037 213.277 201.47C214.493 201.903 215.616 202.581 216.581 203.465C217.545 204.348 218.333 205.421 218.899 206.622C219.465 207.822 219.797 209.127 219.878 210.461C219.959 211.795 219.786 213.133 219.37 214.397C218.953 215.662 218.301 216.829 217.451 217.832C216.601 218.835 215.569 219.654 214.414 220.242L174.383 240.601C173.072 241.264 171.636 241.615 170.179 241.628C168.721 241.642 167.279 241.316 165.958 240.677C164.637 240.037 163.47 239.098 162.542 237.93C161.614 236.762 160.949 235.393 160.595 233.923L149.784 188.482L125.107 151.836H74.6963C73.4103 151.836 72.137 151.573 70.9489 151.061C69.7608 150.55 68.6813 149.8 67.772 148.855C66.8627 147.909 66.1414 146.787 65.6493 145.552C65.1572 144.317 64.9039 142.994 64.9039 141.657C64.9039 140.32 65.1572 138.996 65.6493 137.761C66.1414 136.526 66.8627 135.404 67.772 134.459C68.6813 133.514 69.7608 132.764 70.9489 132.252C72.137 131.741 73.4103 131.477 74.6963 131.477H129.259C129.877 131.091 130.534 130.777 131.218 130.541L165.57 119.262V106.599C165.57 103.899 166.601 101.31 168.438 99.401C170.274 97.492 172.765 96.4195 175.362 96.4195C177.959 96.4195 180.45 97.492 182.286 99.401C184.123 101.31 185.154 103.899 185.154 106.599V126.632C185.158 128.78 184.509 130.873 183.299 132.614C182.089 134.355 180.38 135.653 178.417 136.323L145.789 147.398L163.924 174.231H210.105C212.702 174.231 215.193 175.303 217.029 177.212C218.866 179.121 219.898 181.711 219.898 184.41C219.898 187.11 218.866 189.699 217.029 191.608C215.193 193.517 212.702 194.59 210.105 194.59H171.367L176.654 216.781Z" fill="#FFE66D"/>
<path fill-rule="evenodd" clip-rule="evenodd" d="M13.8842 311.405V319.981C13.8842 320.557 14.3642 321.037 14.9402 321.037H21.3722C21.9482 321.037 22.4282 320.557 22.4282 319.981V311.405C22.4282 310.829 21.9482 310.349 21.3722 310.349C20.7642 310.349 20.2842 310.829 20.2842 311.405V318.893H16.0282V311.405C16.0282 310.829 15.5482 310.349 14.9402 310.349C14.3642 310.349 13.8842 310.829 13.8842 311.405ZM22.4282 332.813V324.237C22.4282 323.661 21.9482 323.181 21.3722 323.181H14.9402C14.3642 323.181 13.8842 323.661 13.8842 324.237V332.813C13.8842 333.389 14.3642 333.869 14.9402 333.869C15.5482 333.869 16.0282 333.389 16.0282 332.813V325.325H20.2842V332.813C20.2842 333.389 20.7642 333.869 21.3722 333.869C21.9482 333.869 22.4282 333.389 22.4282 332.813ZM11.7402 332.813V311.405C11.7402 310.829 11.2602 310.349 10.6842 310.349C10.0762 310.349 9.59619 310.829 9.59619 311.405V332.813C9.59619 333.389 10.0762 333.869 10.6842 333.869C11.2602 333.869 11.7402 333.389 11.7402 332.813ZM24.5722 311.405V332.813C24.5722 333.389 25.0522 333.869 25.6282 333.869C26.2362 333.869 26.7162 333.389 26.7162 332.813V311.405C26.7162 310.829 26.2362 310.349 25.6282 310.349C25.0522 310.349 24.5722 310.829 24.5722 311.405Z" fill="white" stroke="white"/>
<path fill-rule="evenodd" clip-rule="evenodd" d="M38.0441 327.469H41.1481C41.7561 327.469 42.2681 326.989 42.2681 326.381C42.2681 326.221 42.2361 326.093 42.1721 325.965L40.6041 322.125C40.3801 321.613 39.7721 321.357 39.1961 321.581C38.6841 321.773 38.4281 322.413 38.6201 322.957L39.5801 325.325H38.0441C37.4681 325.325 36.9881 325.773 36.9881 326.381C36.9881 326.989 37.4681 327.469 38.0441 327.469ZM36.4761 333.005L37.0201 331.757H42.2041L42.7161 333.005C42.9401 333.581 43.5801 333.805 44.1241 333.613C44.6681 333.357 44.8921 332.749 44.7001 332.205L43.9321 330.349C43.8041 329.933 43.3881 329.581 42.9081 329.581H36.2841C35.9001 329.581 35.4841 329.869 35.2921 330.253L34.5241 332.205C34.3001 332.749 34.5561 333.357 35.1001 333.613C35.6761 333.805 36.2841 333.549 36.4761 333.005ZM31.9001 333.005L39.6121 313.581L47.3241 333.005C47.5481 333.549 48.1881 333.805 48.7321 333.613C49.2761 333.357 49.5321 332.749 49.3081 332.205L40.6041 310.381C40.5081 310.125 40.316 309.869 39.996 309.773C39.484 309.549 38.8441 309.805 38.6201 310.381L29.8841 332.205C29.6921 332.749 29.9801 333.357 30.4921 333.613C31.0361 333.805 31.6441 333.549 31.9001 333.005Z" fill="white" stroke="white"/>
<path fill-rule="evenodd" clip-rule="evenodd" d="M54.716 332.813V311.405C54.716 310.829 54.268 310.381 53.66 310.381C53.084 310.381 52.604 310.829 52.604 311.405V332.813C52.604 333.389 53.084 333.901 53.66 333.901C54.268 333.901 54.716 333.389 54.716 332.813ZM72.188 332.813V311.405C72.188 310.829 71.708 310.381 71.1 310.381C70.524 310.381 70.044 310.829 70.044 311.405V332.813C70.044 333.389 70.524 333.901 71.1 333.901C71.708 333.901 72.188 333.389 72.188 332.813ZM68.124 332.205L58.812 318.893C58.492 318.381 57.788 318.253 57.34 318.637C57.02 318.829 56.892 319.149 56.892 319.501V332.813C56.892 333.389 57.34 333.869 57.916 333.869C58.524 333.869 59.004 333.389 59.004 332.813V322.893L66.364 333.421C66.716 333.901 67.356 334.029 67.868 333.709C68.316 333.325 68.444 332.685 68.124 332.205ZM56.668 312.045L65.948 325.357C66.3 325.837 66.94 325.965 67.42 325.613C67.74 325.421 67.9 325.069 67.9 324.717V311.405C67.9 310.829 67.42 310.381 66.844 310.381C66.268 310.381 65.756 310.829 65.756 311.405V321.357L58.396 310.829C58.076 310.349 57.404 310.189 56.924 310.573C56.444 310.893 56.316 311.533 56.668 312.045Z" fill="white" stroke="white"/>
<path fill-rule="evenodd" clip-rule="evenodd" d="M84.7958 329.613C89.1798 329.613 92.0919 326.317 92.0919 322.093C92.0919 317.901 89.1798 314.605 84.7958 314.605H82.6838C82.1078 314.605 81.6278 315.085 81.6278 315.693V324.237C81.6278 324.845 82.1078 325.325 82.6838 325.325C83.2918 325.325 83.7398 324.845 83.7398 324.237V316.749H84.7958C87.9638 316.749 89.9799 319.085 89.9799 322.093C89.9799 325.133 87.9638 327.469 84.7958 327.469H82.6838C82.1078 327.469 81.6278 327.949 81.6278 328.525C81.6278 329.133 82.1078 329.613 82.6838 329.613H84.7958ZM79.4839 332.813V312.493H84.7958C90.5238 312.493 94.4279 316.525 94.4279 322.093C94.4279 327.693 90.5238 331.725 84.7958 331.725H82.6519C82.0759 331.725 81.5959 332.205 81.5959 332.813C81.5959 333.389 82.0759 333.869 82.6519 333.869H84.7958C91.7398 333.869 96.5718 328.877 96.5718 322.093C96.5718 315.341 91.7398 310.349 84.7958 310.349H78.3958C77.8198 310.349 77.3398 310.829 77.3398 311.405V332.813C77.3398 333.389 77.8198 333.869 78.3958 333.869C79.0038 333.869 79.4839 333.389 79.4839 332.813Z" fill="white" stroke="white"/>
<path fill-rule="evenodd" clip-rule="evenodd" d="M109.98 329.613C110.908 329.613 111.708 329.261 112.284 328.685C114.332 326.669 112.956 323.181 109.98 323.181H106.236C104.828 323.181 104.828 325.293 106.236 325.293H109.98C110.652 325.293 111.1 325.741 111.1 326.381C111.1 328.493 107.708 326.445 107.708 328.525C107.708 329.837 109.212 329.613 109.98 329.613ZM106.236 316.717H109.98C110.652 316.717 111.1 317.197 111.1 317.805C111.1 319.117 109.66 318.893 108.796 318.893C107.388 318.893 107.388 321.037 108.796 321.037C110.108 321.037 111.196 321.165 112.284 320.109C114.332 318.125 112.956 314.573 109.98 314.573H106.236C104.828 314.573 104.828 316.717 106.236 316.717ZM103.004 332.845V312.429H110.364C113.308 312.429 115.644 314.861 115.644 317.805C115.644 321.165 113.084 321.549 114.332 322.893C117.148 325.773 115.292 331.757 110.396 331.757H106.236C104.828 331.757 104.828 333.933 106.236 333.933H110.396C116.38 333.933 119.868 327.021 116.476 322.093C117.404 320.749 117.788 319.245 117.788 317.741C117.788 313.709 114.748 310.253 110.364 310.253H101.916C101.34 310.253 100.86 310.765 100.86 311.341V332.845C100.86 334.253 103.004 334.253 103.004 332.845Z" fill="white" stroke="white"/>
<path fill-rule="evenodd" clip-rule="evenodd" d="M128.06 327.469H131.164C131.772 327.469 132.284 326.989 132.284 326.381C132.284 326.221 132.252 326.093 132.188 325.965L130.62 322.125C130.396 321.613 129.788 321.357 129.212 321.581C128.7 321.773 128.444 322.413 128.636 322.957L129.596 325.325H128.06C127.484 325.325 127.004 325.773 127.004 326.381C127.004 326.989 127.484 327.469 128.06 327.469ZM126.492 333.005L127.036 331.757H132.22L132.732 333.005C132.956 333.581 133.596 333.805 134.14 333.613C134.684 333.357 134.908 332.749 134.716 332.205L133.948 330.349C133.82 329.933 133.404 329.581 132.924 329.581H126.3C125.916 329.581 125.5 329.869 125.308 330.253L124.54 332.205C124.316 332.749 124.572 333.357 125.116 333.613C125.692 333.805 126.3 333.549 126.492 333.005ZM121.916 333.005L129.628 313.581L137.34 333.005C137.564 333.549 138.204 333.805 138.748 333.613C139.292 333.357 139.548 332.749 139.324 332.205L130.62 310.381C130.524 310.125 130.332 309.869 130.012 309.773C129.5 309.549 128.86 309.805 128.636 310.381L119.9 332.205C119.708 332.749 119.996 333.357 120.508 333.613C121.052 333.805 121.66 333.549 121.916 333.005Z" fill="white" stroke="white"/>
<path fill-rule="evenodd" clip-rule="evenodd" d="M156.156 331.725H144.764V311.405C144.764 310.829 144.284 310.349 143.708 310.349C143.1 310.349 142.62 310.829 142.62 311.405V332.813C142.62 333.389 143.1 333.869 143.708 333.869H156.156C156.764 333.869 157.212 333.389 157.212 332.813C157.212 332.205 156.764 331.725 156.156 331.725ZM146.908 311.405V328.525C146.908 329.101 147.388 329.581 147.964 329.581H156.156C156.764 329.581 157.212 329.101 157.212 328.525C157.212 327.917 156.764 327.437 156.156 327.437H149.052V311.405C149.052 310.829 148.572 310.349 147.964 310.349C147.388 310.349 146.908 310.829 146.908 311.405Z" fill="white" stroke="white"/>
<path fill-rule="evenodd" clip-rule="evenodd" d="M174.684 331.725H163.292V311.405C163.292 310.829 162.812 310.349 162.236 310.349C161.628 310.349 161.148 310.829 161.148 311.405V332.813C161.148 333.389 161.628 333.869 162.236 333.869H174.684C175.292 333.869 175.74 333.389 175.74 332.813C175.74 332.205 175.292 331.725 174.684 331.725ZM165.436 311.405V328.525C165.436 329.101 165.916 329.581 166.492 329.581H174.684C175.292 329.581 175.74 329.101 175.74 328.525C175.74 327.917 175.292 327.437 174.684 327.437H167.58V311.405C167.58 310.829 167.1 310.349 166.492 310.349C165.916 310.349 165.436 310.829 165.436 311.405Z" fill="white" stroke="white"/>
<path fill-rule="evenodd" clip-rule="evenodd" d="M180.988 327.277C179.036 327.277 177.596 328.749 177.596 330.669C177.596 332.557 179.036 334.029 180.988 334.029C182.94 334.029 184.348 332.525 184.348 330.669C184.348 328.749 182.94 327.277 180.988 327.277ZM180.988 329.165C181.916 329.165 182.492 329.773 182.492 330.669C182.492 331.533 181.916 332.141 180.988 332.141C180.092 332.141 179.452 331.565 179.452 330.669C179.452 329.773 180.092 329.165 180.988 329.165Z" fill="white" stroke="white"/>
<path fill-rule="evenodd" clip-rule="evenodd" d="M194.012 332.813V311.405C194.012 310.829 193.532 310.349 192.956 310.349C192.348 310.349 191.868 310.829 191.868 311.405V332.813C191.868 333.389 192.348 333.869 192.956 333.869C193.532 333.869 194.012 333.389 194.012 332.813ZM189.724 332.813V311.405C189.724 310.829 189.244 310.349 188.668 310.349C188.06 310.349 187.58 310.829 187.58 311.405V332.813C187.58 333.389 188.06 333.869 188.668 333.869C189.244 333.869 189.724 333.389 189.724 332.813Z" fill="white" stroke="white"/>
<path fill-rule="evenodd" clip-rule="evenodd" d="M211.164 311.181C208.924 310.413 207.356 310.157 205.436 310.253C198.844 310.573 196.028 318.669 200.668 322.733C203.644 325.325 206.812 325.069 206.94 326.573C207.132 328.173 202.812 327.853 200.348 326.061C199.228 325.261 197.98 326.989 199.1 327.789C201.212 329.325 203.804 329.837 205.884 329.709C207.612 329.581 209.18 328.269 209.084 326.477C208.86 323.085 204.892 323.629 202.108 321.133C199.804 319.149 200.252 315.789 201.98 313.965C204.092 311.629 207.548 312.173 210.428 313.197C211.772 313.677 212.476 311.629 211.164 311.181ZM198.684 332.333C199.932 333.005 201.18 333.421 202.268 333.645C208.252 335.085 213.436 332.333 213.436 326.477C213.436 320.525 206.428 319.245 205.244 318.349C204.188 317.517 205.02 315.533 209.852 317.485C211.164 318.029 211.932 316.045 210.684 315.533C202.716 312.301 201.372 317.965 203.932 319.981C205.564 321.293 211.324 322.093 211.324 326.477C211.324 332.397 204.636 333.069 199.708 330.445C198.46 329.805 197.468 331.693 198.684 332.333Z" fill="white" stroke="white"/>
<path fill-rule="evenodd" clip-rule="evenodd" d="M229.404 314.637H222.62C222.012 314.637 221.532 315.085 221.532 315.693V319.981C221.532 320.557 222.012 321.037 222.62 321.037H227.42C227.996 321.037 228.476 320.557 228.476 319.981C228.476 319.373 227.996 318.893 227.42 318.893H223.676V316.749H229.404C230.012 316.749 230.492 316.269 230.492 315.693C230.492 315.085 230.012 314.637 229.404 314.637ZM227.42 323.181H222.62C222.012 323.181 221.532 323.661 221.532 324.237V332.813C221.532 333.389 222.012 333.869 222.62 333.869C223.196 333.869 223.676 333.389 223.676 332.813V325.325H227.42C227.996 325.325 228.476 324.845 228.476 324.237C228.476 323.661 227.996 323.181 227.42 323.181ZM219.388 332.813V312.493H229.404C230.012 312.493 230.492 312.013 230.492 311.405C230.492 310.829 230.012 310.349 229.404 310.349H218.332C217.724 310.349 217.276 310.829 217.276 311.405V332.813C217.276 333.389 217.724 333.869 218.332 333.869C218.908 333.869 219.388 333.389 219.388 332.813Z" fill="white" stroke="white"/>
<path fill-rule="evenodd" clip-rule="evenodd" d="M238.524 325.069C238.524 331.309 247.772 331.309 247.772 325.069V311.373C247.772 310.765 247.292 310.285 246.716 310.285C246.076 310.285 245.628 310.765 245.628 311.373V325.069C245.628 328.461 240.668 328.461 240.668 325.069V311.373C240.668 310.765 240.188 310.285 239.58 310.285C239.004 310.285 238.524 310.765 238.524 311.373V325.069ZM252.124 325.325V311.373C252.124 310.765 251.644 310.285 251.068 310.285C250.46 310.285 250.012 310.765 250.012 311.373V325.325C250.012 334.285 236.284 334.285 236.284 325.325V311.373C236.284 310.765 235.804 310.285 235.196 310.285C234.62 310.285 234.14 310.765 234.14 311.373V325.325C234.14 337.037 252.124 337.069 252.124 325.325Z" fill="white" stroke="white"/>
<path fill-rule="evenodd" clip-rule="evenodd" d="M259.292 332.813V311.405C259.292 310.829 258.844 310.381 258.236 310.381C257.66 310.381 257.18 310.829 257.18 311.405V332.813C257.18 333.389 257.66 333.901 258.236 333.901C258.844 333.901 259.292 333.389 259.292 332.813ZM276.764 332.813V311.405C276.764 310.829 276.284 310.381 275.676 310.381C275.1 310.381 274.62 310.829 274.62 311.405V332.813C274.62 333.389 275.1 333.901 275.676 333.901C276.284 333.901 276.764 333.389 276.764 332.813ZM272.7 332.205L263.388 318.893C263.068 318.381 262.364 318.253 261.916 318.637C261.596 318.829 261.468 319.149 261.468 319.501V332.813C261.468 333.389 261.916 333.869 262.492 333.869C263.1 333.869 263.58 333.389 263.58 332.813V322.893L270.94 333.421C271.292 333.901 271.932 334.029 272.444 333.709C272.892 333.325 273.02 332.685 272.7 332.205ZM261.244 312.045L270.524 325.357C270.876 325.837 271.516 325.965 271.996 325.613C272.316 325.421 272.476 325.069 272.476 324.717V311.405C272.476 310.829 271.996 310.381 271.42 310.381C270.844 310.381 270.332 310.829 270.332 311.405V321.357L262.972 310.829C262.652 310.349 261.98 310.189 261.5 310.573C261.02 310.893 260.892 311.533 261.244 312.045Z" fill="white" stroke="white"/>
</svg>
