<?xml version="1.0" encoding="UTF-8" standalone="no"?>
<svg
   data-v-fde0c5aa=""
   viewBox="0 0 210700.17 18970.285"
   class="iconLeft"
   version="1.1"
   id="svg3"
   width="210700.17"
   height="18970.285"
   xmlns="http://www.w3.org/2000/svg"
   xmlns:svg="http://www.w3.org/2000/svg">
  <!---->
  <defs
     data-v-fde0c5aa=""
     id="defs1">
    <rect
       x="23.529411"
       y="5.8363972"
       width="205.70284"
       height="59.379307"
       id="rect8" />
    <rect
       x="30.569279"
       y="216.48236"
       width="264.78537"
       height="41.026485"
       id="rect2" />
    <!---->
    <rect
       x="30.569279"
       y="216.48236"
       width="270.39291"
       height="55.635342"
       id="rect2-1" />
    <rect
       x="30.569279"
       y="216.48236"
       width="1005.8241"
       height="134.2856"
       id="rect2-7" />
    <rect
       x="30.569279"
       y="216.48236"
       width="264.78537"
       height="41.026485"
       id="rect2-3" />
    <rect
       x="30.569279"
       y="216.48236"
       width="264.78537"
       height="41.026485"
       id="rect2-3-3" />
  </defs>
  <rect
     data-v-fde0c5aa=""
     fill="#f55760"
     x="131366.22"
     y="129610.35"
     width="300"
     height="300"
     class="logo-background-square"
     id="rect1" />
  <text
     xml:space="preserve"
     id="text1-1"
     style="font-style:normal;font-variant:normal;font-weight:normal;font-stretch:normal;font-size:42.6667px;font-family:Declander;-inkscape-font-specification:Declander;white-space:pre;shape-inside:url(#rect2-1);display:inline;fill:#ffffff"
     transform="translate(131356.56,129624.57)" />
  <defs
     data-v-fde0c5aa=""
     id="defs2">
    <!---->
  </defs>
  <g
     data-v-fde0c5aa=""
     id="1ac05088-f993-4168-970f-e206be78e09f"
     fill="#ffffff"
     transform="matrix(2.3361103,0,0,2.3361103,131426.74,130028.11)">
    <path
       d="m 3,0.81 v 0 3.75 c 0,0.26 0.21,0.47 0.46,0.47 h 2.81 c 0.25,0 0.46,-0.21 0.46,-0.47 V 0.81 C 6.73,0.56 6.52,0.35 6.27,0.35 6.01,0.35 5.8,0.56 5.8,0.81 V 4.09 H 3.93 V 0.81 C 3.93,0.56 3.72,0.35 3.46,0.35 3.21,0.35 3,0.56 3,0.81 Z m 3.73,9.37 v 0 -3.75 C 6.73,6.17 6.52,5.96 6.27,5.96 H 3.46 C 3.21,5.96 3,6.17 3,6.43 v 3.75 c 0,0.25 0.21,0.46 0.46,0.46 0.26,0 0.47,-0.21 0.47,-0.46 V 6.9 H 5.8 v 3.28 c 0,0.25 0.21,0.46 0.47,0.46 0.25,0 0.46,-0.21 0.46,-0.46 z m -4.67,0 v 0 -9.37 C 2.06,0.56 1.85,0.35 1.6,0.35 1.33,0.35 1.12,0.56 1.12,0.81 v 9.37 c 0,0.25 0.21,0.46 0.48,0.46 0.25,0 0.46,-0.21 0.46,-0.46 z M 7.67,0.81 v 0 9.37 c 0,0.25 0.21,0.46 0.46,0.46 0.27,0 0.48,-0.21 0.48,-0.46 V 0.81 C 8.61,0.56 8.4,0.35 8.13,0.35 7.88,0.35 7.67,0.56 7.67,0.81 Z m 5.9,7.03 v 0 h 1.35 c 0.27,0 0.49,-0.21 0.49,-0.48 0,-0.07 -0.01,-0.12 -0.04,-0.18 L 14.69,5.5 C 14.59,5.28 14.32,5.17 14.07,5.26 13.85,5.35 13.73,5.63 13.82,5.87 l 0.42,1.03 h -0.67 c -0.26,0 -0.47,0.2 -0.47,0.46 0,0.27 0.21,0.48 0.47,0.48 z m -0.69,2.42 v 0 l 0.24,-0.54 h 2.27 l 0.22,0.54 c 0.1,0.25 0.38,0.35 0.62,0.27 0.23,-0.11 0.33,-0.38 0.25,-0.62 L 16.14,9.1 C 16.09,8.92 15.9,8.76 15.69,8.76 H 12.8 v 0 c -0.17,0 -0.35,0.13 -0.44,0.3 l -0.33,0.85 c -0.1,0.24 0.01,0.51 0.25,0.62 0.25,0.08 0.52,-0.03 0.6,-0.27 z m -2,0 v 0 l 3.37,-8.5 3.38,8.5 c 0.09,0.24 0.37,0.35 0.61,0.27 0.24,-0.11 0.35,-0.38 0.25,-0.62 L 14.69,0.36 C 14.64,0.25 14.56,0.14 14.42,0.1 14.2,0 13.92,0.11 13.82,0.36 L 10,9.91 c -0.09,0.24 0.04,0.51 0.26,0.62 0.24,0.08 0.51,-0.03 0.62,-0.27 z m 9.98,-0.08 v 0 -9.37 c 0,-0.25 -0.2,-0.45 -0.46,-0.45 -0.25,0 -0.46,0.2 -0.46,0.45 v 9.37 c 0,0.25 0.21,0.47 0.46,0.47 0.26,0 0.46,-0.22 0.46,-0.47 z m 7.64,0 v 0 -9.37 c 0,-0.25 -0.21,-0.45 -0.47,-0.45 -0.25,0 -0.46,0.2 -0.46,0.45 v 9.37 c 0,0.25 0.21,0.47 0.46,0.47 0.26,0 0.47,-0.22 0.47,-0.47 z M 26.73,9.91 v 0 L 22.65,4.09 C 22.51,3.86 22.2,3.81 22.01,3.98 21.87,4.06 21.81,4.2 21.81,4.35 v 5.83 c 0,0.25 0.2,0.46 0.45,0.46 0.27,0 0.48,-0.21 0.48,-0.46 V 5.84 l 3.22,4.6 c 0.15,0.21 0.43,0.27 0.65,0.13 0.2,-0.17 0.26,-0.45 0.12,-0.66 z M 21.71,1.09 v 0 l 4.06,5.83 c 0.16,0.21 0.44,0.26 0.65,0.11 0.14,-0.09 0.21,-0.24 0.21,-0.39 V 0.81 c 0,-0.25 -0.21,-0.45 -0.46,-0.45 -0.26,0 -0.48,0.2 -0.48,0.45 V 5.17 L 22.47,0.56 C 22.33,0.35 22.04,0.28 21.83,0.45 21.62,0.59 21.56,0.87 21.71,1.09 Z m 12.31,7.69 v 0 c 1.92,0 3.19,-1.44 3.19,-3.29 0,-1.84 -1.27,-3.28 -3.19,-3.28 H 33.1 c -0.26,0 -0.47,0.21 -0.47,0.48 v 3.74 c 0,0.26 0.21,0.47 0.47,0.47 0.26,0 0.46,-0.21 0.46,-0.47 V 3.15 h 0.46 c 1.39,0 2.27,1.02 2.27,2.34 0,1.33 -0.88,2.35 -2.27,2.35 H 33.1 c -0.26,0 -0.47,0.21 -0.47,0.46 0,0.27 0.21,0.48 0.47,0.48 z m -2.32,1.4 v 0 -8.89 h 2.32 c 2.51,0 4.21,1.76 4.21,4.2 0,2.45 -1.7,4.21 -4.21,4.21 h -0.94 c -0.25,0 -0.46,0.21 -0.46,0.48 0,0.25 0.21,0.46 0.46,0.46 h 0.94 c 3.04,0 5.15,-2.18 5.15,-5.15 0,-2.96 -2.11,-5.14 -5.15,-5.14 h -2.8 c -0.25,0 -0.46,0.21 -0.46,0.46 v 9.37 c 0,0.25 0.21,0.46 0.46,0.46 0.27,0 0.48,-0.21 0.48,-0.46 z m 13.34,-1.4 v 0 c 0.4,0 0.75,-0.16 1.01,-0.41 0.89,-0.88 0.29,-2.41 -1.01,-2.41 H 43.4 c -0.62,0 -0.62,0.93 0,0.93 h 1.64 c 0.29,0 0.49,0.19 0.49,0.47 0,0.93 -1.49,0.03 -1.49,0.94 0,0.58 0.66,0.48 1,0.48 z M 43.4,3.14 v 0 h 1.64 c 0.29,0 0.49,0.21 0.49,0.47 0,0.58 -0.63,0.48 -1.01,0.48 -0.62,0 -0.62,0.94 0,0.94 0.57,0 1.05,0.05 1.53,-0.41 C 46.94,3.75 46.34,2.2 45.04,2.2 H 43.4 c -0.62,0 -0.62,0.94 0,0.94 z m -1.41,7.05 v 0 -8.93 h 3.22 c 1.28,0 2.31,1.06 2.31,2.35 0,1.47 -1.12,1.64 -0.58,2.23 1.23,1.26 0.42,3.88 -1.72,3.88 H 43.4 c -0.62,0 -0.62,0.95 0,0.95 h 1.82 c 2.62,0 4.14,-3.03 2.66,-5.18 0.41,-0.59 0.57,-1.25 0.57,-1.91 0,-1.76 -1.33,-3.27 -3.24,-3.27 h -3.7 c -0.25,0 -0.46,0.22 -0.46,0.47 v 9.41 c 0,0.62 0.94,0.62 0.94,0 z M 52.95,7.84 v 0 h 1.36 c 0.26,0 0.49,-0.21 0.49,-0.48 0,-0.07 -0.02,-0.12 -0.05,-0.18 L 54.07,5.5 C 53.97,5.28 53.7,5.17 53.45,5.26 53.23,5.35 53.12,5.63 53.2,5.87 l 0.42,1.03 h -0.67 c -0.25,0 -0.46,0.2 -0.46,0.46 0,0.27 0.21,0.48 0.46,0.48 z m -0.69,2.42 v 0 L 52.5,9.72 h 2.27 l 0.22,0.54 c 0.1,0.25 0.38,0.35 0.62,0.27 0.24,-0.11 0.33,-0.38 0.25,-0.62 L 55.52,9.1 C 55.47,8.92 55.29,8.76 55.08,8.76 h -2.9 v 0 c -0.17,0 -0.35,0.13 -0.44,0.3 l -0.33,0.85 c -0.1,0.24 0.01,0.51 0.25,0.62 0.25,0.08 0.52,-0.03 0.6,-0.27 z m -2,0 v 0 l 3.37,-8.5 3.38,8.5 c 0.1,0.24 0.38,0.35 0.61,0.27 0.24,-0.11 0.35,-0.38 0.26,-0.62 L 54.07,0.36 C 54.03,0.25 53.94,0.14 53.8,0.1 53.58,0 53.3,0.11 53.2,0.36 l -3.82,9.55 c -0.09,0.24 0.04,0.51 0.26,0.62 0.24,0.08 0.51,-0.03 0.62,-0.27 z M 65.24,9.7 v 0 H 60.26 V 0.81 c 0,-0.25 -0.21,-0.46 -0.47,-0.46 -0.26,0 -0.47,0.21 -0.47,0.46 v 9.37 c 0,0.25 0.21,0.46 0.47,0.46 h 5.45 c 0.27,0 0.46,-0.21 0.46,-0.46 C 65.7,9.91 65.51,9.7 65.24,9.7 Z M 61.19,0.81 v 0 7.49 c 0,0.25 0.21,0.46 0.47,0.46 h 3.58 c 0.27,0 0.46,-0.21 0.46,-0.46 0,-0.26 -0.19,-0.47 -0.46,-0.47 H 62.13 V 0.81 c 0,-0.25 -0.21,-0.46 -0.47,-0.46 -0.26,0 -0.47,0.21 -0.47,0.46 z M 73.35,9.7 v 0 H 68.36 V 0.81 c 0,-0.25 -0.21,-0.46 -0.46,-0.46 -0.27,0 -0.48,0.21 -0.48,0.46 v 9.37 c 0,0.25 0.21,0.46 0.48,0.46 h 5.45 c 0.26,0 0.46,-0.21 0.46,-0.46 0,-0.27 -0.2,-0.48 -0.46,-0.48 z M 69.3,0.81 v 0 7.49 c 0,0.25 0.21,0.46 0.46,0.46 h 3.59 c 0.26,0 0.46,-0.21 0.46,-0.46 0,-0.26 -0.2,-0.47 -0.46,-0.47 H 70.24 V 0.81 c 0,-0.25 -0.21,-0.46 -0.48,-0.46 -0.25,0 -0.46,0.21 -0.46,0.46 z"
       id="path2" />
  </g>
  <defs
     data-v-fde0c5aa=""
     id="defs3">
    <!---->
  </defs>
  <g
     data-v-fde0c5aa=""
     id="5c71895a-d8b0-4d1d-b63a-0ea4bf99828e"
     stroke="none"
     fill="#fde581"
     transform="matrix(1.6670233,0,0,1.6670233,131430.64,129659.82)">
    <path
       d="M 75.17,14.71 H 27.54 A 12.51,12.51 0 0 0 15,27.21 v 47.63 a 12.51,12.51 0 0 0 12.5,12.5 h 47.67 a 12.51,12.51 0 0 0 12.5,-12.5 V 27.21 A 12.51,12.51 0 0 0 75.17,14.71 Z M 57.47,30.5 a 3.61,3.61 0 1 1 -3.61,3.61 3.61,3.61 0 0 1 3.61,-3.61 z M 46.21,36.72 A 4.17,4.17 0 1 1 42,40.89 4.17,4.17 0 0 1 46.21,36.72 Z m 13.89,31.23 7.44,-3.64 a 2.500005,2.500005 0 1 1 2.2,4.49 l -10.22,5 A 2.5,2.5 0 0 1 56,72.16 L 53.24,61 46.94,52 H 34.07 a 2.5,2.5 0 1 1 0,-5 H 48 a 2.49,2.49 0 0 1 0.5,-0.23 L 57.27,44 v -3.11 a 2.5,2.5 0 0 1 5,0 v 4.92 a 2.5,2.5 0 0 1 -1.72,2.38 l -8.33,2.72 4.63,6.59 h 11.79 a 2.5,2.5 0 0 1 0,5 h -9.89 z"
       id="path3" />
  </g>
  <!---->
  <text
     xml:space="preserve"
     id="text1"
     style="font-size:26.6667px;white-space:pre;shape-inside:url(#rect2);shape-padding:1.07845;fill:#ffffff"
     transform="translate(131358.27,129598.01)"><tspan
       x="31.646484"
       y="241.15433"
       id="tspan2"><tspan
         style="font-family:Trixie;-inkscape-font-specification:Trixie"
         id="tspan1">HANDBALLISFUN</tspan></tspan></text>
  <text
     xml:space="preserve"
     style="font-style:normal;font-variant:normal;font-weight:normal;font-stretch:normal;font-size:29.3333px;font-family:Declander;-inkscape-font-specification:Declander;fill:#ffffff"
     x="131417.73"
     y="129953.76"
     id="text7"><tspan
       id="tspan7"
       x="131417.73"
       y="129953.76"
       style="font-size:29.3333px">HANDBALLISFUN</tspan></text>
  <text
     xml:space="preserve"
     id="text8"
     style="font-style:normal;font-variant:normal;font-weight:normal;font-stretch:normal;font-size:53.3333px;font-family:Declander;-inkscape-font-specification:Declander;white-space:pre;shape-inside:url(#rect8);fill:#ffffff"
     transform="translate(131365.48,129609.52)" />
  <text
     xml:space="preserve"
     style="font-style:normal;font-variant:normal;font-weight:normal;font-stretch:normal;font-size:53.3333px;font-family:Declander;-inkscape-font-specification:Declander;fill:#ffffff"
     x="131414.2"
     y="130010.98"
     id="text9"><tspan
       id="tspan9"
       x="131414.2"
       y="130010.98"
       style="font-style:normal;font-variant:normal;font-weight:normal;font-stretch:normal;font-family:Rambors;-inkscape-font-specification:Rambors;fill:#00ffff">HANDBALL</tspan></text>
  <rect
     style="fill:#f55760;fill-opacity:1"
     id="rect3"
     width="28.068176"
     height="19.946278"
     x="131346.23"
     y="129561.95" />
  <g
     data-v-fde0c5aa=""
     id="5c71895a-d8b0-4d1d-b63a-0ea4bf99828e-3"
     stroke="none"
     fill="#fde581"
     transform="matrix(0.89495245,0,0,0.89495245,131231.67,130138.35)">
    <path
       d="M 75.17,14.71 H 27.54 A 12.51,12.51 0 0 0 15,27.21 v 47.63 a 12.51,12.51 0 0 0 12.5,12.5 h 47.67 a 12.51,12.51 0 0 0 12.5,-12.5 V 27.21 A 12.51,12.51 0 0 0 75.17,14.71 Z M 57.47,30.5 a 3.61,3.61 0 1 1 -3.61,3.61 3.61,3.61 0 0 1 3.61,-3.61 z M 46.21,36.72 A 4.17,4.17 0 1 1 42,40.89 4.17,4.17 0 0 1 46.21,36.72 Z m 13.89,31.23 7.44,-3.64 a 2.500005,2.500005 0 1 1 2.2,4.49 l -10.22,5 A 2.5,2.5 0 0 1 56,72.16 L 53.24,61 46.94,52 H 34.07 a 2.5,2.5 0 1 1 0,-5 H 48 a 2.49,2.49 0 0 1 0.5,-0.23 L 57.27,44 v -3.11 a 2.5,2.5 0 0 1 5,0 v 4.92 a 2.5,2.5 0 0 1 -1.72,2.38 l -8.33,2.72 4.63,6.59 h 11.79 a 2.5,2.5 0 0 1 0,5 h -9.89 z"
       id="path3-6" />
  </g>
  <text
     xml:space="preserve"
     id="text1-5"
     style="font-size:96px;white-space:pre;shape-inside:url(#rect2-7);shape-padding:1.07845;display:inline;fill:#ffffff"
     transform="translate(131295.23,129910.87)"><tspan
       x="31.646484"
       y="302.49805"
       id="tspan4"><tspan
         style="font-family:Trixie;-inkscape-font-specification:Trixie"
         id="tspan3">HANDBALL.ISFUN</tspan></tspan></text>
  <g
     data-v-fde0c5aa=""
     id="5c71895a-d8b0-4d1d-b63a-0ea4bf99828e-39"
     stroke="none"
     fill="#fde581"
     transform="matrix(3.9169504,0,0,4.0717633,130856.02,129552.62)"
     style="fill:#ffe66d;fill-opacity:1">
    <path
       d="m -13.722506,-25.745408 h -47.63 a 12.51,12.51 0 0 0 -12.54,12.5 v 47.63 a 12.51,12.51 0 0 0 12.5,12.5 h 47.67 a 12.51,12.51 0 0 0 12.5000004,-12.5 v -47.63 a 12.51,12.51 0 0 0 -12.5000004,-12.5 z m -17.7,15.7899998 a 3.61,3.61 0 1 1 -3.61,3.61 3.61,3.61 0 0 1 3.61,-3.61 z m -11.26,6.22 a 4.17,4.17 0 1 1 -4.21,4.16999996 4.17,4.17 0 0 1 4.21,-4.16999996 z m 13.89,31.2300002 7.44,-3.64 a 2.500005,2.500005 0 1 1 2.2,4.49 l -10.22,5 a 2.5,2.5 0 0 1 -3.52,-1.64 l -2.76,-11.16 -6.3,-9 h -12.87 a 2.5000001,2.5000001 0 1 1 0,-5.0000002 h 13.93 a 2.49,2.49 0 0 1 0.5,-0.23 l 8.77,-2.77 V 0.43459176 a 2.5,2.5 0 0 1 5,0 V 5.3545918 a 2.5,2.5 0 0 1 -1.72,2.38 l -8.33,2.7200002 4.63,6.59 h 11.79 a 2.5,2.5 0 0 1 0,5 h -9.89 z"
       id="path3-4"
       style="fill:#ffe66d;fill-opacity:1" />
  </g>
  <rect
     style="fill:#ffe66d;fill-opacity:1;fill-rule:evenodd;stroke:#ffffff;paint-order:markers fill stroke"
     id="rect6879"
     width="283.00494"
     height="35.811123"
     x="131070.34"
     y="130003.1"
     rx="10"
     ry="10" />
  <text
     xml:space="preserve"
     id="text1-6"
     style="font-size:26.6667px;white-space:pre;shape-inside:url(#rect2-3);shape-padding:1.07845;display:inline;fill:#f55760;fill-opacity:1"
     transform="translate(131050.91,129788.74)"><tspan
       x="31.646484"
       y="241.15433"
       id="tspan6"><tspan
         style="font-family:Trixie;-inkscape-font-specification:Trixie"
         id="tspan5">HANDBALLISFUN</tspan></tspan></text>
  <rect
     style="fill:#ffe66d;fill-opacity:1;fill-rule:evenodd;stroke:#ffffff;paint-order:markers fill stroke"
     id="rect6879-5"
     width="283.00494"
     height="35.811123"
     x="131068.79"
     y="130051.82"
     rx="10"
     ry="10" />
  <text
     xml:space="preserve"
     id="text1-6-6"
     style="font-size:26.6667px;white-space:pre;shape-inside:url(#rect2-3-3);shape-padding:1.07845;display:inline;fill:#ffffff;fill-opacity:1"
     transform="translate(131053.23,129883.58)"><tspan
       x="31.646484"
       y="241.15433"
       id="tspan10"><tspan
         style="font-family:Trixie;-inkscape-font-specification:Trixie"
         id="tspan8">HANDBALLISFUN</tspan></tspan></text>
  <text
     xml:space="preserve"
     style="font-weight:bold;font-size:32px;font-family:Monoton;-inkscape-font-specification:'Monoton Bold';text-align:center;text-anchor:middle;fill:#ffffff;fill-rule:evenodd;stroke:#ffffff;paint-order:markers fill stroke"
     x="130709.78"
     y="129781.34"
     id="text385"><tspan
       id="tspan383"
       x="130709.78"
       y="129781.34"
       style="font-style:normal;font-variant:normal;font-weight:bold;font-stretch:normal;font-size:32px;font-family:Lovelo;-inkscape-font-specification:'Lovelo Bold'">HANDBALL.ISFUN</tspan></text>
  <g
     data-v-fde0c5aa=""
     id="5c71895a-d8b0-4d1d-b63a-0ea4bf99828e-39-2"
     stroke="none"
     fill="#fde581"
     transform="matrix(3.9169504,0,0,4.0717633,131224.75,129552.53)"
     style="fill:#ffe66d;fill-opacity:1">
    <path
       d="m -13.722506,-25.745408 h -47.63 a 12.51,12.51 0 0 0 -12.54,12.5 v 47.63 a 12.51,12.51 0 0 0 12.5,12.5 h 47.67 a 12.51,12.51 0 0 0 12.5000004,-12.5 v -47.63 a 12.51,12.51 0 0 0 -12.5000004,-12.5 z m -17.7,15.7899998 a 3.61,3.61 0 1 1 -3.61,3.61 3.61,3.61 0 0 1 3.61,-3.61 z m -11.26,6.22 a 4.17,4.17 0 1 1 -4.21,4.16999996 4.17,4.17 0 0 1 4.21,-4.16999996 z m 13.89,31.2300002 7.44,-3.64 a 2.500005,2.500005 0 1 1 2.2,4.49 l -10.22,5 a 2.5,2.5 0 0 1 -3.52,-1.64 l -2.76,-11.16 -6.3,-9 h -12.87 a 2.5000001,2.5000001 0 1 1 0,-5.0000002 h 13.93 a 2.49,2.49 0 0 1 0.5,-0.23 l 8.77,-2.77 V 0.43459176 a 2.5,2.5 0 0 1 5,0 V 5.3545918 a 2.5,2.5 0 0 1 -1.72,2.38 l -8.33,2.7200002 4.63,6.59 h 11.79 a 2.5,2.5 0 0 1 0,5 h -9.89 z"
       id="path3-4-8"
       style="fill:#ffe66d;fill-opacity:1" />
  </g>
  <g
     aria-label="HANDBALL.ISFUN"
     id="text385-9"
     style="font-weight:bold;font-size:32px;font-family:Monoton;-inkscape-font-specification:'Monoton Bold';text-align:center;text-anchor:middle;fill:#ffffff;fill-rule:evenodd;stroke:#ffffff;paint-order:markers fill stroke"
     transform="translate(131365.48,129609.52)">
    <path
       d="m -416.28136,149.58232 v 8.576 c 0,0.576 0.48,1.056 1.056,1.056 h 6.432 c 0.576,0 1.056,-0.48 1.056,-1.056 v -8.576 c 0,-0.576 -0.48,-1.056 -1.056,-1.056 -0.608,0 -1.088,0.48 -1.088,1.056 v 7.488 h -4.256 v -7.488 c 0,-0.576 -0.48,-1.056 -1.088,-1.056 -0.576,0 -1.056,0.48 -1.056,1.056 z m 8.544,21.408 v -8.576 c 0,-0.576 -0.48,-1.056 -1.056,-1.056 h -6.432 c -0.576,0 -1.056,0.48 -1.056,1.056 v 8.576 c 0,0.576 0.48,1.056 1.056,1.056 0.608,0 1.088,-0.48 1.088,-1.056 v -7.488 h 4.256 v 7.488 c 0,0.576 0.48,1.056 1.088,1.056 0.576,0 1.056,-0.48 1.056,-1.056 z m -10.688,0 v -21.408 c 0,-0.576 -0.48,-1.056 -1.056,-1.056 -0.608,0 -1.088,0.48 -1.088,1.056 v 21.408 c 0,0.576 0.48,1.056 1.088,1.056 0.576,0 1.056,-0.48 1.056,-1.056 z m 12.832,-21.408 v 21.408 c 0,0.576 0.48,1.056 1.056,1.056 0.608,0 1.088,-0.48 1.088,-1.056 v -21.408 c 0,-0.576 -0.48,-1.056 -1.088,-1.056 -0.576,0 -1.056,0.48 -1.056,1.056 z"
       style="font-family:Lovelo;-inkscape-font-specification:'Lovelo Bold'"
       id="path519" />
    <path
       d="m -392.12139,165.64632 h 3.104 c 0.608,0 1.12,-0.48 1.12,-1.088 0,-0.16 -0.032,-0.288 -0.096,-0.416 l -1.568,-3.84 c -0.224,-0.512 -0.832,-0.768 -1.408,-0.544 -0.512,0.192 -0.768,0.832 -0.576,1.376 l 0.96,2.368 h -1.536 c -0.576,0 -1.056,0.448 -1.056,1.056 0,0.608 0.48,1.088 1.056,1.088 z m -1.568,5.536 0.544,-1.248 h 5.184 l 0.512,1.248 c 0.224,0.576 0.864,0.8 1.408,0.608 0.544,-0.256 0.768,-0.864 0.576,-1.408 l -0.768,-1.856 c -0.128,-0.416 -0.544,-0.768 -1.024,-0.768 h -6.624 c -0.384,0 -0.8,0.288 -0.992,0.672 l -0.768,1.952 c -0.224,0.544 0.032,1.152 0.576,1.408 0.576,0.192 1.184,-0.064 1.376,-0.608 z m -4.576,0 7.712,-19.424 7.712,19.424 c 0.224,0.544 0.864,0.8 1.408,0.608 0.544,-0.256 0.8,-0.864 0.576,-1.408 l -8.704,-21.824 c -0.096,-0.256 -0.288,-0.512 -0.608,-0.608 -0.512,-0.224 -1.152,0.032 -1.376,0.608 l -8.736,21.824 c -0.192,0.544 0.096,1.152 0.608,1.408 0.544,0.192 1.152,-0.064 1.408,-0.608 z"
       style="font-family:Lovelo;-inkscape-font-specification:'Lovelo Bold'"
       id="path521" />
    <path
       d="m -375.44943,170.99032 v -21.408 c 0,-0.576 -0.448,-1.024 -1.056,-1.024 -0.576,0 -1.056,0.448 -1.056,1.024 v 21.408 c 0,0.576 0.48,1.088 1.056,1.088 0.608,0 1.056,-0.512 1.056,-1.088 z m 17.472,0 v -21.408 c 0,-0.576 -0.48,-1.024 -1.088,-1.024 -0.576,0 -1.056,0.448 -1.056,1.024 v 21.408 c 0,0.576 0.48,1.088 1.056,1.088 0.608,0 1.088,-0.512 1.088,-1.088 z m -4.064,-0.608 -9.312,-13.312 c -0.32,-0.512 -1.024,-0.64 -1.472,-0.256 -0.32,0.192 -0.448,0.512 -0.448,0.864 v 13.312 c 0,0.576 0.448,1.056 1.024,1.056 0.608,0 1.088,-0.48 1.088,-1.056 v -9.92 l 7.36,10.528 c 0.352,0.48 0.992,0.608 1.504,0.288 0.448,-0.384 0.576,-1.024 0.256,-1.504 z m -11.456,-20.16 9.28,13.312 c 0.352,0.48 0.992,0.608 1.472,0.256 0.32,-0.192 0.48,-0.544 0.48,-0.896 v -13.312 c 0,-0.576 -0.48,-1.024 -1.056,-1.024 -0.576,0 -1.088,0.448 -1.088,1.024 v 9.952 l -7.36,-10.528 c -0.32,-0.48 -0.992,-0.64 -1.472,-0.256 -0.48,0.32 -0.608,0.96 -0.256,1.472 z"
       style="font-family:Lovelo;-inkscape-font-specification:'Lovelo Bold'"
       id="path523" />
    <path
       d="m -345.36947,167.79032 c 4.384,0 7.296,-3.296 7.296,-7.52 0,-4.192 -2.912,-7.488 -7.296,-7.488 h -2.112 c -0.576,0 -1.056,0.48 -1.056,1.088 v 8.544 c 0,0.608 0.48,1.088 1.056,1.088 0.608,0 1.056,-0.48 1.056,-1.088 v -7.488 h 1.056 c 3.168,0 5.184,2.336 5.184,5.344 0,3.04 -2.016,5.376 -5.184,5.376 h -2.112 c -0.576,0 -1.056,0.48 -1.056,1.056 0,0.608 0.48,1.088 1.056,1.088 z m -5.312,3.2 v -20.32 h 5.312 c 5.728,0 9.632,4.032 9.632,9.6 0,5.6 -3.904,9.632 -9.632,9.632 h -2.144 c -0.576,0 -1.056,0.48 -1.056,1.088 0,0.576 0.48,1.056 1.056,1.056 h 2.144 c 6.944,0 11.776,-4.992 11.776,-11.776 0,-6.752 -4.832,-11.744 -11.776,-11.744 h -6.4 c -0.576,0 -1.056,0.48 -1.056,1.056 v 21.408 c 0,0.576 0.48,1.056 1.056,1.056 0.608,0 1.088,-0.48 1.088,-1.056 z"
       style="font-family:Lovelo;-inkscape-font-specification:'Lovelo Bold'"
       id="path525" />
    <path
       d="m -320.18551,167.79032 c 0.928,0 1.728,-0.352 2.304,-0.928 2.048,-2.016 0.672,-5.504 -2.304,-5.504 h -3.744 c -1.408,0 -1.408,2.112 0,2.112 h 3.744 c 0.672,0 1.12,0.448 1.12,1.088 0,2.112 -3.392,0.064 -3.392,2.144 0,1.312 1.504,1.088 2.272,1.088 z m -3.744,-12.896 h 3.744 c 0.672,0 1.12,0.48 1.12,1.088 0,1.312 -1.44,1.088 -2.304,1.088 -1.408,0 -1.408,2.144 0,2.144 1.312,0 2.4,0.128 3.488,-0.928 2.048,-1.984 0.672,-5.536 -2.304,-5.536 h -3.744 c -1.408,0 -1.408,2.144 0,2.144 z m -3.232,16.128 v -20.416 h 7.36 c 2.944,0 5.28,2.432 5.28,5.376 0,3.36 -2.56,3.744 -1.312,5.088 2.816,2.88 0.96,8.864 -3.936,8.864 h -4.16 c -1.408,0 -1.408,2.176 0,2.176 h 4.16 c 5.984,0 9.472,-6.912 6.08,-11.84 0.928,-1.344 1.312,-2.848 1.312,-4.352 0,-4.032 -3.04,-7.488 -7.424,-7.488 h -8.448 c -0.576,0 -1.056,0.512 -1.056,1.088 v 21.504 c 0,1.408 2.144,1.408 2.144,0 z"
       style="font-family:Lovelo;-inkscape-font-specification:'Lovelo Bold'"
       id="path527" />
    <path
       d="m -302.10552,165.64632 h 3.104 c 0.608,0 1.12,-0.48 1.12,-1.088 0,-0.16 -0.032,-0.288 -0.096,-0.416 l -1.568,-3.84 c -0.224,-0.512 -0.832,-0.768 -1.408,-0.544 -0.512,0.192 -0.768,0.832 -0.576,1.376 l 0.96,2.368 h -1.536 c -0.576,0 -1.056,0.448 -1.056,1.056 0,0.608 0.48,1.088 1.056,1.088 z m -1.568,5.536 0.544,-1.248 h 5.184 l 0.512,1.248 c 0.224,0.576 0.864,0.8 1.408,0.608 0.544,-0.256 0.768,-0.864 0.576,-1.408 l -0.768,-1.856 c -0.128,-0.416 -0.544,-0.768 -1.024,-0.768 h -6.624 c -0.384,0 -0.8,0.288 -0.992,0.672 l -0.768,1.952 c -0.224,0.544 0.032,1.152 0.576,1.408 0.576,0.192 1.184,-0.064 1.376,-0.608 z m -4.576,0 7.712,-19.424 7.712,19.424 c 0.224,0.544 0.864,0.8 1.408,0.608 0.544,-0.256 0.8,-0.864 0.576,-1.408 l -8.704,-21.824 c -0.096,-0.256 -0.288,-0.512 -0.608,-0.608 -0.512,-0.224 -1.152,0.032 -1.376,0.608 l -8.736,21.824 c -0.192,0.544 0.096,1.152 0.608,1.408 0.544,0.192 1.152,-0.064 1.408,-0.608 z"
       style="font-family:Lovelo;-inkscape-font-specification:'Lovelo Bold'"
       id="path529" />
    <path
       d="m -274.00956,169.90232 h -11.392 v -20.32 c 0,-0.576 -0.48,-1.056 -1.056,-1.056 -0.608,0 -1.088,0.48 -1.088,1.056 v 21.408 c 0,0.576 0.48,1.056 1.088,1.056 h 12.448 c 0.608,0 1.056,-0.48 1.056,-1.056 0,-0.608 -0.448,-1.088 -1.056,-1.088 z m -9.248,-20.32 v 17.12 c 0,0.576 0.48,1.056 1.056,1.056 h 8.192 c 0.608,0 1.056,-0.48 1.056,-1.056 0,-0.608 -0.448,-1.088 -1.056,-1.088 h -7.104 v -16.032 c 0,-0.576 -0.48,-1.056 -1.088,-1.056 -0.576,0 -1.056,0.48 -1.056,1.056 z"
       style="font-family:Lovelo;-inkscape-font-specification:'Lovelo Bold'"
       id="path531" />
    <path
       d="m -255.48161,169.90232 h -11.392 v -20.32 c 0,-0.576 -0.48,-1.056 -1.056,-1.056 -0.608,0 -1.088,0.48 -1.088,1.056 v 21.408 c 0,0.576 0.48,1.056 1.088,1.056 h 12.448 c 0.608,0 1.056,-0.48 1.056,-1.056 0,-0.608 -0.448,-1.088 -1.056,-1.088 z m -9.248,-20.32 v 17.12 c 0,0.576 0.48,1.056 1.056,1.056 h 8.192 c 0.608,0 1.056,-0.48 1.056,-1.056 0,-0.608 -0.448,-1.088 -1.056,-1.088 h -7.104 v -16.032 c 0,-0.576 -0.48,-1.056 -1.088,-1.056 -0.576,0 -1.056,0.48 -1.056,1.056 z"
       style="font-family:Lovelo;-inkscape-font-specification:'Lovelo Bold'"
       id="path533" />
    <path
       d="m -249.17765,165.45432 c -1.952,0 -3.392,1.472 -3.392,3.392 0,1.888 1.44,3.36 3.392,3.36 1.952,0 3.36,-1.504 3.36,-3.36 0,-1.92 -1.408,-3.392 -3.36,-3.392 z m 0,1.888 c 0.928,0 1.504,0.608 1.504,1.504 0,0.864 -0.576,1.472 -1.504,1.472 -0.896,0 -1.536,-0.576 -1.536,-1.472 0,-0.896 0.64,-1.504 1.536,-1.504 z"
       style="font-family:Lovelo;-inkscape-font-specification:'Lovelo Bold'"
       id="path535" />
    <path
       d="m -236.15366,170.99032 v -21.408 c 0,-0.576 -0.48,-1.056 -1.056,-1.056 -0.608,0 -1.088,0.48 -1.088,1.056 v 21.408 c 0,0.576 0.48,1.056 1.088,1.056 0.576,0 1.056,-0.48 1.056,-1.056 z m -4.288,0 v -21.408 c 0,-0.576 -0.48,-1.056 -1.056,-1.056 -0.608,0 -1.088,0.48 -1.088,1.056 v 21.408 c 0,0.576 0.48,1.056 1.088,1.056 0.576,0 1.056,-0.48 1.056,-1.056 z"
       style="font-family:Lovelo;-inkscape-font-specification:'Lovelo Bold'"
       id="path537" />
    <path
       d="m -219.00168,149.35832 c -2.24,-0.768 -3.808,-1.024 -5.728,-0.928 -6.592,0.32 -9.408,8.416 -4.768,12.48 2.976,2.592 6.144,2.336 6.272,3.84 0.192,1.6 -4.128,1.28 -6.592,-0.512 -1.12,-0.8 -2.368,0.928 -1.248,1.728 2.112,1.536 4.704,2.048 6.784,1.92 1.728,-0.128 3.296,-1.44 3.2,-3.232 -0.224,-3.392 -4.192,-2.848 -6.976,-5.344 -2.304,-1.984 -1.856,-5.344 -0.128,-7.168 2.112,-2.336 5.568,-1.792 8.448,-0.768 1.344,0.48 2.048,-1.568 0.736,-2.016 z m -12.48,21.152 c 1.248,0.672 2.496,1.088 3.584,1.312 5.984,1.44 11.168,-1.312 11.168,-7.168 0,-5.952 -7.008,-7.232 -8.192,-8.128 -1.056,-0.832 -0.224,-2.816 4.608,-0.864 1.312,0.544 2.08,-1.44 0.832,-1.952 -7.968,-3.232 -9.312,2.432 -6.752,4.448 1.632,1.312 7.392,2.112 7.392,6.496 0,5.92 -6.688,6.592 -11.616,3.968 -1.248,-0.64 -2.24,1.248 -1.024,1.888 z"
       style="font-family:Lovelo;-inkscape-font-specification:'Lovelo Bold'"
       id="path539" />
    <path
       d="m -200.76168,152.81432 h -6.784 c -0.608,0 -1.088,0.448 -1.088,1.056 v 4.288 c 0,0.576 0.48,1.056 1.088,1.056 h 4.8 c 0.576,0 1.056,-0.48 1.056,-1.056 0,-0.608 -0.48,-1.088 -1.056,-1.088 h -3.744 v -2.144 h 5.728 c 0.608,0 1.088,-0.48 1.088,-1.056 0,-0.608 -0.48,-1.056 -1.088,-1.056 z m -1.984,8.544 h -4.8 c -0.608,0 -1.088,0.48 -1.088,1.056 v 8.576 c 0,0.576 0.48,1.056 1.088,1.056 0.576,0 1.056,-0.48 1.056,-1.056 v -7.488 h 3.744 c 0.576,0 1.056,-0.48 1.056,-1.088 0,-0.576 -0.48,-1.056 -1.056,-1.056 z m -8.032,9.632 v -20.32 h 10.016 c 0.608,0 1.088,-0.48 1.088,-1.088 0,-0.576 -0.48,-1.056 -1.088,-1.056 h -11.072 c -0.608,0 -1.056,0.48 -1.056,1.056 v 21.408 c 0,0.576 0.448,1.056 1.056,1.056 0.576,0 1.056,-0.48 1.056,-1.056 z"
       style="font-family:Lovelo;-inkscape-font-specification:'Lovelo Bold'"
       id="path541" />
    <path
       d="m -191.64173,163.24632 c 0,6.24 9.248,6.24 9.248,0 v -13.696 c 0,-0.608 -0.48,-1.088 -1.056,-1.088 -0.64,0 -1.088,0.48 -1.088,1.088 v 13.696 c 0,3.392 -4.96,3.392 -4.96,0 v -13.696 c 0,-0.608 -0.48,-1.088 -1.088,-1.088 -0.576,0 -1.056,0.48 -1.056,1.088 z m 13.6,0.256 v -13.952 c 0,-0.608 -0.48,-1.088 -1.056,-1.088 -0.608,0 -1.056,0.48 -1.056,1.088 v 13.952 c 0,8.96 -13.728,8.96 -13.728,0 v -13.952 c 0,-0.608 -0.48,-1.088 -1.088,-1.088 -0.576,0 -1.056,0.48 -1.056,1.088 v 13.952 c 0,11.712 17.984,11.744 17.984,0 z"
       style="font-family:Lovelo;-inkscape-font-specification:'Lovelo Bold'"
       id="path543" />
    <path
       d="m -170.87375,170.99032 v -21.408 c 0,-0.576 -0.448,-1.024 -1.056,-1.024 -0.576,0 -1.056,0.448 -1.056,1.024 v 21.408 c 0,0.576 0.48,1.088 1.056,1.088 0.608,0 1.056,-0.512 1.056,-1.088 z m 17.472,0 v -21.408 c 0,-0.576 -0.48,-1.024 -1.088,-1.024 -0.576,0 -1.056,0.448 -1.056,1.024 v 21.408 c 0,0.576 0.48,1.088 1.056,1.088 0.608,0 1.088,-0.512 1.088,-1.088 z m -4.064,-0.608 -9.312,-13.312 c -0.32,-0.512 -1.024,-0.64 -1.472,-0.256 -0.32,0.192 -0.448,0.512 -0.448,0.864 v 13.312 c 0,0.576 0.448,1.056 1.024,1.056 0.608,0 1.088,-0.48 1.088,-1.056 v -9.92 l 7.36,10.528 c 0.352,0.48 0.992,0.608 1.504,0.288 0.448,-0.384 0.576,-1.024 0.256,-1.504 z m -11.456,-20.16 9.28,13.312 c 0.352,0.48 0.992,0.608 1.472,0.256 0.32,-0.192 0.48,-0.544 0.48,-0.896 v -13.312 c 0,-0.576 -0.48,-1.024 -1.056,-1.024 -0.576,0 -1.088,0.448 -1.088,1.024 v 9.952 l -7.36,-10.528 c -0.32,-0.48 -0.992,-0.64 -1.472,-0.256 -0.48,0.32 -0.608,0.96 -0.256,1.472 z"
       style="font-family:Lovelo;-inkscape-font-specification:'Lovelo Bold'"
       id="path545" />
  </g>
  <text
     xml:space="preserve"
     style="font-weight:bold;font-size:74.6667px;font-family:Monoton;-inkscape-font-specification:'Monoton Bold';text-align:center;text-anchor:middle;fill:#ffffff;fill-rule:evenodd;stroke:#ffffff;paint-order:markers fill stroke"
     x="131317.78"
     y="129235.48"
     id="text385-6"><tspan
       id="tspan383-2"
       x="131317.78"
       y="129235.48"
       style="font-style:normal;font-variant:normal;font-weight:bold;font-stretch:normal;font-size:74.6667px;font-family:Lovelo;-inkscape-font-specification:'Lovelo Bold'">HANDBALL.ISFUN</tspan></text>
  <g
     data-v-fde0c5aa=""
     id="5c71895a-d8b0-4d1d-b63a-0ea4bf99828e-39-1"
     stroke="none"
     fill="#fde581"
     transform="matrix(0.8375332,0,0,0.87063568,130989.49,129199.91)"
     style="fill:#ffe66d;fill-opacity:1">
    <path
       d="m -13.722506,-25.745408 h -47.63 a 12.51,12.51 0 0 0 -12.54,12.5 v 47.63 a 12.51,12.51 0 0 0 12.5,12.5 h 47.67 a 12.51,12.51 0 0 0 12.5000004,-12.5 v -47.63 a 12.51,12.51 0 0 0 -12.5000004,-12.5 z m -17.7,15.7899998 a 3.61,3.61 0 1 1 -3.61,3.61 3.61,3.61 0 0 1 3.61,-3.61 z m -11.26,6.22 a 4.17,4.17 0 1 1 -4.21,4.16999996 4.17,4.17 0 0 1 4.21,-4.16999996 z m 13.89,31.2300002 7.44,-3.64 a 2.500005,2.500005 0 1 1 2.2,4.49 l -10.22,5 a 2.5,2.5 0 0 1 -3.52,-1.64 l -2.76,-11.16 -6.3,-9 h -12.87 a 2.5000001,2.5000001 0 1 1 0,-5.0000002 h 13.93 a 2.49,2.49 0 0 1 0.5,-0.23 l 8.77,-2.77 V 0.43459176 a 2.5,2.5 0 0 1 5,0 V 5.3545918 a 2.5,2.5 0 0 1 -1.72,2.38 l -8.33,2.7200002 4.63,6.59 h 11.79 a 2.5,2.5 0 0 1 0,5 h -9.89 z"
       id="path3-4-87"
       style="fill:#ffe66d;fill-opacity:1" />
  </g>
</svg>
