<svg width="12" height="15" viewBox="0 0 12 15" fill="none" xmlns="http://www.w3.org/2000/svg">
<g id="Pause">
<path id="Vector" fill-rule="evenodd" clip-rule="evenodd" d="M0 0.922783C0 0.412484 0.381099 0 0.852324 0L4.26162 0C4.73284 0 5.11394 0.412484 5.11394 0.922783V13.8417C5.11394 14.352 4.73284 14.7645 4.26162 14.7645H0.852324C0.381099 14.7645 0 14.352 0 13.8417L0 0.922783Z" fill="#FFE66D"/>
<path id="Vector_2" fill-rule="evenodd" clip-rule="evenodd" d="M6.86658 0.922783C6.86658 0.412484 7.24768 0 7.7189 0L11.1282 0C11.5994 0 11.9805 0.412484 11.9805 0.922783V13.8417C11.9805 14.352 11.5994 14.7645 11.1282 14.7645H7.7189C7.24768 14.7645 6.86658 14.352 6.86658 13.8417V0.922783Z" fill="#FFE66D"/>
</g>
</svg>
